<svg width="60" height="53" viewBox="0 0 60 53" fill="none" xmlns="http://www.w3.org/2000/svg">
<path d="M16.1913 1.01898C16.0762 1.03103 15.6826 1.0732 15.3133 1.10935C12.3161 1.41058 9.1252 2.52515 6.71535 4.12772C5.63758 4.83863 5.02604 5.33265 4.1723 6.18816C1.96227 8.39922 0.642303 11.0501 0.139747 14.3034C0.0247042 15.0324 0.000484652 15.43 0.000484652 16.7675C-0.00557023 18.3942 0.0428689 18.9967 0.272955 20.3221C0.920827 24.0875 3.31856 28.5578 7.40561 33.6366C12.0558 39.4203 19.6789 46.6018 27.4231 52.4939L28.0891 53L26.1152 50.9817C23.8265 48.6381 23.1907 47.9814 21.792 46.4632C11.6804 35.5224 5.78896 26.7926 4.69302 21.1414C4.37211 19.4907 4.37211 16.653 4.69302 14.448C5.18952 11.038 6.57004 8.25463 8.70136 6.40505C10.9901 4.40485 14.0963 3.29028 18.2802 2.96495C21.4711 2.71794 24.7347 3.4409 26.9447 4.87478C27.1627 5.01937 27.1203 4.94105 26.6844 4.40485C26.2726 3.89878 25.7156 3.42283 24.9587 2.9288C23.56 2.01305 21.8223 1.42263 19.6668 1.13344C19.037 1.04307 16.6333 0.964754 16.1913 1.01898Z" fill="#C7223B"/>
<path d="M41.4378 1.01324C39.2762 1.20001 37.605 1.60366 36.1821 2.2724C34.9651 2.84475 33.627 3.89305 33.0336 4.73048L32.8277 5.01966L33.2152 4.76663C35.28 3.43517 38.6223 2.72426 41.7102 2.95922C49.7996 3.58579 54.2681 7.36327 55.2974 14.4483C55.6183 16.6473 55.6183 19.491 55.2974 21.1357C54.3528 26.0097 49.8722 33.1309 42.1099 42.0956C39.5547 45.0477 37.3083 47.4696 33.8752 50.982C32.5916 52.2954 32.0406 52.8919 32.2949 52.693C32.5129 52.5243 33.0033 52.1508 33.3848 51.8556C35.3587 50.3374 37.714 48.3914 39.8635 46.5177C48.6552 38.8543 54.7706 31.7934 57.7557 25.8651C59.0333 23.3287 59.6145 21.4851 59.9173 18.9909C60.0384 18.0209 60.0142 15.3942 59.887 14.5025C59.4874 11.7974 58.6094 9.6406 57.0897 7.63438C56.4781 6.82105 55.3519 5.66431 54.5769 5.04979C51.9491 2.96524 48.5946 1.59764 44.9436 1.12771C44.2715 1.03734 41.9888 0.965047 41.4378 1.01324Z" fill="#C7223B"/>
<path d="M35.5806 9.53792C34.9025 9.63431 34.1517 9.92952 33.5099 10.3512C32.9286 10.7368 32.7954 10.9055 33.2798 10.6525C34.1093 10.2127 35.2355 9.95964 36.3557 9.95964C37.3911 9.95964 38.1176 10.2006 38.9108 10.7971C39.4437 11.2007 39.9281 11.749 40.7394 12.8696C41.5084 13.9359 42.8828 15.4662 43.4459 15.894C44.0212 16.3157 44.554 16.5627 45.4501 16.8037C47.2545 17.2917 47.757 17.623 47.7631 18.34C47.7631 19.1352 46.8912 19.6594 45.1353 19.9245C45.0505 19.9365 45.2564 19.9486 45.5894 19.9486C46.8306 19.9666 47.757 19.6052 48.0779 18.9786C48.2111 18.7256 48.2475 18.2556 48.1627 17.9424C47.9629 17.2314 47.1879 16.7736 45.438 16.3458C44.7659 16.1771 44.0454 15.8217 43.5913 15.4301C42.9071 14.8336 41.7687 13.5443 41.1088 12.6105C39.8191 10.8091 38.8261 9.97169 37.603 9.65841C37.0762 9.52587 36.1014 9.46562 35.5806 9.53792Z" fill="#213BA0"/>
<path d="M23.9069 10.0511C22.92 10.268 22.0481 10.762 21.6364 11.3343C21.5032 11.5151 21.3942 11.6898 21.3942 11.7139C21.3942 11.738 21.5637 11.5874 21.7756 11.3825C22.4235 10.7379 23.3136 10.4668 25.0271 10.4005C27.5762 10.3101 29.3866 11.2078 29.8892 12.8224C30.1011 13.4912 30.1435 14.0515 30.1374 15.9854C30.1314 17.9374 30.0829 18.5278 29.865 19.3893C29.3987 21.2088 28.5813 22.4318 27.667 22.6788C27.2069 22.7993 26.5893 22.6126 25.8808 22.1366C25.1906 21.6667 24.2702 20.9015 23.4892 20.1485C22.6778 19.3653 22.6717 19.4074 23.4589 20.3834C24.5064 21.6908 25.2451 22.3475 26.2199 22.8355C26.9283 23.1849 27.4491 23.2452 28.0061 23.0343C28.9083 22.6969 29.7196 21.5161 30.204 19.8472C30.5249 18.7266 30.5613 18.2989 30.5673 15.9553C30.5673 13.4852 30.5068 12.9851 30.1132 12.1959C29.8831 11.744 29.3563 11.1476 28.9325 10.8584C28.3633 10.4788 27.5702 10.1836 26.7527 10.0511C26.0746 9.93661 24.4156 9.94263 23.9069 10.0511Z" fill="#213BA0"/>
<path d="M34.1719 12.4624C34.1719 12.4684 34.3293 12.5768 34.517 12.7034C35.0317 13.0407 35.7461 13.7938 35.952 14.2095C36.2305 14.7759 36.2971 15.3422 36.279 16.9508C36.2608 18.3545 36.2608 18.3666 36.4122 18.6557C36.5878 18.9992 36.8784 19.2703 37.2417 19.4329C37.387 19.4932 37.5021 19.5835 37.5021 19.6257C37.5021 19.7583 37.7806 19.9691 38.0773 20.0595C38.5617 20.2041 39.3306 20.1619 40.0693 19.9511C40.3055 19.8848 40.257 19.8788 39.3004 19.7763C38.7373 19.7221 38.2044 19.6438 38.1197 19.6016C38.0288 19.5655 37.9138 19.451 37.8654 19.3426C37.7988 19.204 37.7019 19.1257 37.5142 19.0534C37.3749 19.0052 37.1569 18.8666 37.0419 18.7521C36.6847 18.3967 36.6604 18.24 36.6968 16.6796C36.721 15.547 36.7089 15.2096 36.6302 14.8421C36.4061 13.7878 35.728 12.9323 34.8742 12.6371C34.6199 12.5467 34.1719 12.4322 34.1719 12.4624Z" fill="#213BA0"/>
<path d="M32.2298 12.9571C31.8787 13.1861 31.4669 13.6379 31.3216 13.9633C31.1218 14.4151 31.0189 15.355 31.0189 16.7346C31.0189 19.3975 31.4245 21.1206 32.2722 22.0604C32.6173 22.44 33.6709 23.2413 34.0402 23.4039C34.8637 23.7715 36.0686 23.163 36.5954 22.1267C36.8073 21.711 37.2009 20.7109 37.2009 20.6025C37.2009 20.5603 37.0616 20.7471 36.886 21.0121C36.0929 22.2472 35.5176 22.8497 34.9788 23.0063C34.458 23.1569 34.2703 23.0967 33.4469 22.4761C32.6173 21.8616 32.2722 21.4399 31.9876 20.7169C31.6001 19.7229 31.4124 18.1384 31.4669 16.2828C31.5154 14.4211 31.7091 13.6921 32.3086 13.0836C32.6476 12.7463 32.6234 12.7101 32.2298 12.9571Z" fill="#213BA0"/>
<path d="M20.6811 14.4492C20.4026 15.4313 20.4268 16.5338 20.7538 17.6544C21.111 18.8954 21.1655 19.8654 20.9415 20.9258C20.778 21.6969 20.5661 22.1789 20.1665 22.691C20.009 22.8898 19.0766 23.6971 18.3682 24.2514L18.1562 24.4141L18.3984 24.3478C18.5317 24.3177 18.8707 24.1851 19.1493 24.0526C19.5731 23.8598 19.7426 23.7272 20.1786 23.2935C20.8022 22.6609 21.0868 22.1608 21.3109 21.2993C21.6075 20.1546 21.5712 18.8051 21.2079 17.6122C21.0384 17.0639 21.0021 16.8049 20.8325 15.0216C20.7538 14.2564 20.7477 14.2203 20.6811 14.4492Z" fill="#213BA0"/>
<path d="M24.5271 14.3904C24.0548 14.5109 23.4191 14.8241 23.189 15.0591C23.0134 15.2338 22.7106 15.7459 22.7591 15.7881C22.7712 15.8001 22.9528 15.6977 23.1648 15.5652C23.964 15.0712 24.0669 15.0169 24.4121 14.8904C24.8238 14.7458 25.2174 14.7338 27.0036 14.8061C28.1722 14.8603 28.2388 14.8543 28.6263 14.7278C28.8503 14.6494 29.0441 14.5711 29.0622 14.541C29.0986 14.4747 28.5173 14.4205 27.4577 14.3964C26.9733 14.3783 26.1983 14.3542 25.732 14.3361C25.0842 14.312 24.7996 14.3241 24.5271 14.3904Z" fill="#213BA0"/>
<path d="M48.859 21.1872C49.2889 21.6209 49.7066 22.3861 49.8944 23.091C50.0518 23.6934 50.0397 24.7116 49.8641 25.1514C49.1072 27.0793 46.1403 28.0914 43.3611 27.3685C41.7929 26.9588 39.9825 25.7418 39.262 24.6212C39.0016 24.2115 39.0379 24.4345 39.3165 24.9948C39.8735 26.0913 40.7091 26.7961 42.247 27.4528C43.1795 27.8505 43.8152 27.983 44.9838 28.0131C45.8739 28.0372 46.0979 28.0252 46.6429 27.9107C47.8781 27.6577 48.7076 27.242 49.4705 26.4949C50.2516 25.7237 50.5059 25.061 50.4453 23.9404C50.3909 22.8741 50.1487 22.2053 49.5977 21.6029C49.3131 21.3016 48.647 20.8016 48.5199 20.8016C48.4896 20.8016 48.641 20.9763 48.859 21.1872Z" fill="#213BA0"/>
<path d="M37.8324 21.6729C37.8808 21.7934 38.0201 22.0103 38.1291 22.1488C38.2441 22.2874 38.4379 22.5585 38.565 22.7453C38.7406 23.0164 38.8678 23.1248 39.1039 23.2393C39.6488 23.4984 40.3028 23.4984 40.7024 23.2393L40.8598 23.1369L40.7084 23.0766C40.6297 23.0465 40.2967 22.9983 39.9758 22.9742C39.6065 22.9441 39.3279 22.8959 39.2371 22.8356C39.1584 22.7814 38.9646 22.5525 38.8133 22.3175C38.5226 21.8837 38.1654 21.5283 38.0201 21.5283C37.9777 21.5283 37.8929 21.5102 37.8384 21.4921C37.7476 21.456 37.7476 21.468 37.8324 21.6729Z" fill="#213BA0"/>
<path d="M22.235 21.5691C22.2168 21.5992 22.1684 21.7318 22.126 21.8643C21.9625 22.3945 21.5508 23.0753 21.127 23.5151L20.7031 23.9609L20.9453 23.9188C21.8899 23.744 22.3743 23.1356 22.3622 22.1415C22.3622 21.7438 22.2955 21.4607 22.235 21.5691Z" fill="#213BA0"/>
<path d="M36.5231 23.1592C36.4322 23.3099 36.4141 23.4906 36.4141 24.1051C36.4141 24.9004 36.4141 24.9004 36.0992 25.3703C36.0023 25.5089 35.9297 25.6354 35.9297 25.6535C35.9297 25.6715 36.0326 25.6836 36.1598 25.6836C36.4201 25.6836 36.5655 25.5631 36.7471 25.2016C36.9166 24.8763 36.953 23.5388 36.8076 23.2135C36.7471 23.0809 36.6805 22.9725 36.6623 22.9725C36.6442 22.9725 36.5776 23.0568 36.5231 23.1592Z" fill="#213BA0"/>
<path d="M25.5838 24.3905C25.2507 25.1436 25.1841 25.8063 25.39 26.2642C25.6019 26.7281 26.1226 26.9992 28.1752 27.6981C28.8231 27.921 29.4892 28.174 29.6587 28.2584C29.8948 28.3789 30.9605 29.0838 31.2208 29.2946C31.2451 29.3127 30.9181 29.3308 30.4943 29.3308C29.8827 29.3368 29.6284 29.3609 29.2409 29.4693C28.254 29.7525 27.4668 30.2465 27.2065 30.7526C27.0067 31.1502 26.9522 31.8491 26.9885 33.6384C27.0309 35.9037 27.1944 36.8616 27.5819 37.2532C27.7938 37.4641 28.2297 37.6087 28.805 37.6569C29.1925 37.6931 29.2106 37.6991 29.2106 37.8497C29.2106 38.0425 29.0229 38.4582 28.8897 38.5727C28.8352 38.6148 28.593 38.6871 28.3569 38.7353C27.7635 38.8498 27.4244 39.0245 27.0309 39.4221C26.6676 39.7896 26.4072 40.2475 26.274 40.7536C26.159 41.1813 26.159 42.5008 26.268 43.3984C26.3467 44.031 26.5949 44.9046 26.7342 45.0552C26.8068 45.1275 26.8008 44.019 26.7281 43.5189C26.6252 42.8442 26.5889 41.4705 26.6615 41.0789C26.7645 40.5367 27.043 40.0186 27.4244 39.6752C27.7696 39.3559 28.036 39.2414 28.6294 39.1269C29.2106 39.0245 29.4407 38.6931 29.3741 38.0606L29.3378 37.7352L29.7435 37.7292C29.9675 37.7232 30.3126 37.7051 30.5124 37.681L30.8757 37.6449L30.3913 37.5967C29.2591 37.4822 28.1752 37.187 27.9028 36.9219C27.5879 36.6086 27.4305 35.3976 27.4305 33.1866C27.4244 31.2406 27.4547 31.0659 27.8362 30.6803C28.2903 30.2285 29.3196 29.8308 30.2763 29.7465C31.675 29.62 34.3997 30.7466 34.7811 31.6081C34.9809 32.066 35.0475 32.7829 34.9991 34.1505C34.9446 35.9941 34.878 36.217 34.3331 36.4821C34.0364 36.6267 34.0061 36.6568 34.1635 36.6267C34.5995 36.5484 34.878 36.3797 35.0112 36.0965C35.3624 35.3796 35.538 34.0662 35.4472 32.8371C35.3866 31.9756 35.3079 31.578 35.1384 31.3069C34.7751 30.7225 33.7034 30.0778 32.3531 29.638L31.572 29.379L31.3238 29.0295C31.0513 28.6379 30.9605 28.5536 30.4822 28.2222C29.9796 27.8728 29.7798 27.7885 28.3327 27.2824C26.8371 26.7643 25.9228 26.3546 25.8078 26.1497C25.7593 26.0714 25.717 25.6678 25.6988 25.1135C25.6685 24.2941 25.6564 24.2279 25.5838 24.3905Z" fill="#213BA0"/>
<path d="M16.1619 25.1339C16.0651 25.1641 15.7078 25.2846 15.3748 25.4111C15.0418 25.5376 14.2789 25.7967 13.6855 25.9955C12.305 26.4473 11.76 26.7004 11.4573 27.0136C11.3241 27.1522 11.2272 27.2727 11.2393 27.2848C11.2817 27.3209 11.9659 27.1221 12.311 26.9715C12.4987 26.8871 13.3282 26.5859 14.1578 26.3088C15.8229 25.7424 16.3012 25.5376 16.6161 25.2665L16.828 25.0857H16.5858C16.4526 25.0918 16.2649 25.1098 16.1619 25.1339Z" fill="#213BA0"/>
<path d="M32.9515 27.3804C32.8549 27.4347 32.8428 27.5371 32.8428 28.1215C32.8428 28.7239 32.8549 28.8143 32.9636 28.9107C33.0784 29.0131 33.0905 29.0131 33.1993 28.9167C33.302 28.8264 33.3141 28.748 33.2839 28.1998C33.2597 27.6455 33.1872 27.3081 33.0905 27.3142C33.0724 27.3142 33.0059 27.3443 32.9515 27.3804Z" fill="#213BA0"/>
<path d="M19.0389 29.11C18.9541 29.1281 18.6998 29.2426 18.4637 29.363C17.8097 29.7004 17.3193 29.833 16.4292 29.9233C15.3575 30.0258 14.8973 30.2366 15.4362 30.3752C15.7874 30.4595 16.9378 30.3631 17.5857 30.1944C18.2941 30.0077 19.0934 29.586 19.2993 29.2968L19.4688 29.0558L19.3295 29.0618C19.2508 29.0678 19.1237 29.0859 19.0389 29.11Z" fill="#213BA0"/>
<path d="M43.9394 30.9198C43.7759 31.0945 43.7396 31.1969 43.679 31.6367C43.5822 32.3054 43.6306 33.2694 43.782 33.661C43.897 33.9683 44.1392 34.2092 44.2966 34.1671C44.3754 34.155 44.3693 34.0767 44.2361 33.667C44.115 33.2754 44.0847 33.0525 44.0847 32.4922C44.0787 32.1127 44.1089 31.6608 44.1453 31.4981C44.1816 31.3294 44.1937 31.0885 44.1695 30.9559L44.1271 30.7149L43.9394 30.9198Z" fill="#213BA0"/>
<path d="M24.0017 32.9537C23.8685 33.3091 23.8624 33.3212 23.929 34.8755C23.9956 36.5504 24.038 36.8034 24.2923 36.8998C24.4497 36.9601 25.0915 36.8155 25.0915 36.7191C25.0915 36.695 24.9886 36.6408 24.8615 36.6046C24.3831 36.46 24.4134 36.5624 24.365 34.6888C24.3347 33.3694 24.3044 32.9657 24.2318 32.803L24.1409 32.5982L24.0017 32.9537Z" fill="#213BA0"/>
<path d="M20.2643 36.9169L20.0947 37.0615L20.2764 37.1338C20.3793 37.176 20.676 37.2061 20.9424 37.2001C21.2088 37.1941 21.5782 37.2363 21.7598 37.2844C22.2503 37.417 22.5772 37.4049 22.7407 37.2423L22.8679 37.1158L22.7225 37.0555C22.3653 36.923 21.4571 36.7724 20.9666 36.7724C20.4883 36.7724 20.4156 36.7904 20.2643 36.9169Z" fill="#213BA0"/>
<path d="M32.5708 38.2127C32.4376 38.2368 32.1652 38.3332 31.9653 38.4296L31.6021 38.6103L32.8433 38.6405C34.024 38.6706 34.1027 38.6766 34.4236 38.8272C34.902 39.0501 35.5862 39.5201 36.4884 40.243C37.1605 40.7913 37.99 41.3094 37.99 41.1949C37.99 41.1166 37.4814 40.478 37.2997 40.3274C36.0827 39.2972 34.9201 38.5079 34.3631 38.3332C33.9332 38.2007 32.9826 38.1344 32.5708 38.2127Z" fill="#213BA0"/>
<path d="M34.7803 41.2556C34.7803 41.4664 35.7188 42.4545 35.9489 42.4786C36.0881 42.4967 36.1124 42.4786 36.1124 42.334C36.1124 42.2195 35.9791 42.0328 35.6219 41.6412C35.2223 41.2013 35.1012 41.105 34.9559 41.105C34.8105 41.105 34.7803 41.1291 34.7803 41.2556Z" fill="#213BA0"/>
<path d="M28.1613 41.6388C28.0767 41.7292 28.0586 41.8858 28.0586 42.4461C28.0586 43.0606 28.0707 43.151 28.1794 43.2474C28.2943 43.3498 28.3063 43.3498 28.4212 43.2474C28.5299 43.151 28.542 43.0606 28.542 42.4341C28.542 41.8256 28.5239 41.7171 28.4332 41.6328C28.2943 41.5063 28.2822 41.5063 28.1613 41.6388Z" fill="#213BA0"/>
<path d="M33.8111 42.8502C33.7687 42.9406 33.799 43.0671 33.9685 43.4407C34.0896 43.6997 34.1865 43.9166 34.1926 43.9166C34.1986 43.9226 34.2652 43.9467 34.3379 43.9648C34.4469 44.0009 34.4893 43.9768 34.5438 43.8684C34.5922 43.7479 34.568 43.6515 34.3924 43.278C34.2713 43.037 34.1441 42.8141 34.1017 42.784C33.9746 42.7056 33.8777 42.7297 33.8111 42.8502Z" fill="#213BA0"/>
</svg>
